<svg xmlns="http://www.w3.org/2000/svg" id="Layer_1" data-name="Layer 1" viewBox="0 0 1200 214.51"><defs><style>.cls-1{fill:#fff;stroke-width:0}</style></defs><path d="M517.67 159.2v55.32h-4.97v-49.6l-17.31 49.6h-5.05l-17.47-49.19v49.19h-4.64V159.2h7.95l16.97 49.02 16.73-49.02h7.78Z" class="cls-1"/><path d="M553.18 159.2v55.32h-5.13V159.2h5.13Z" class="cls-1"/><path d="M611.31 199.19h-23.02l-5.22 15.32h-5.05l19.21-55.32h5.55l19.21 55.32h-5.55l-5.13-15.32Zm-1.41-4.05-10.1-29.97-10.1 29.97h20.21Z" class="cls-1"/><path d="M696.26 159.2v55.32h-4.97v-49.6l-17.31 49.6h-5.05l-17.47-49.19v49.19h-4.64V159.2h7.95l16.97 49.02 16.73-49.02h7.78Z" class="cls-1"/><path d="M731.77 159.2v55.32h-5.13V159.2h5.13Z" class="cls-1"/><path d="M150.93 77.71v2.72c-8.75-.59-10.17-.71-15.02-.71h-.95c-3.9 0-7.92.24-15.14.71v-2.72c8.4-.71 9.94-1.65 9.58-9.7l-2.13-57.02-25.43 67.66h-1.89l-25.2-67.77-2.13 56.78c-.36 8.75 1.54 9.34 9.23 10.05v2.72c-4.61-.35-8.75-.71-11.36-.71-3.43 0-7.1.36-11.24.71v-2.72c8.04-.71 9.58-1.65 9.94-9.94l2.01-54.53c.35-8.05-1.18-8.99-8.64-9.58V.95c5.09.36 8.4.59 11.59.59s5.92-.12 9.58-.36l21.41 58.67 22.25-58.67c2.96.24 5.68.36 8.75.36 2.72 0 6.15-.24 11.47-.59v2.72c-7.33.59-8.87 1.54-8.52 9.58l2.01 54.53c.35 8.28 1.89 9.23 9.82 9.94Z" class="cls-1"/><path d="M203.92 61.98c-.83 11.36-9.34 19.4-21.76 19.4-17.62 0-25.67-12.89-25.67-28.86 0-17.98 11.59-28.86 25.08-28.86 12.54 0 22.12 9.82 22.12 26.26v1.07h-35.6v1.42c0 16.68 4.85 25.31 16.56 25.31 8.52 0 15.38-6.39 16.21-15.73h3.07ZM168.2 47.91h24.72c-.12-14.43-4.14-21.17-11.59-21.17-8.28 0-12.42 7.69-13.13 21.17Z" class="cls-1"/><path d="M255.26 33.95c-.47 4.14-2.48 5.8-5.68 5.8-3.67 0-5.8-2.72-5.09-6.39.47-2.48.24-5.56-3.9-5.56-6.15 0-10.88 7.81-10.88 19.4v21.17c0 8.04 1.54 8.87 9.82 9.46v2.6c-5.09-.47-10.29-.71-14.31-.71h-.83c-4.02 0-8.16.24-13.01.71v-2.6c6.74-.59 7.81-1.77 7.81-8.99V36.55c0-7.57-.35-8.64-8.4-8.99v-2.48c5.68-.12 10.29-.24 15.61-.83h2.72v10.53c2.48-6.98 7.45-11.12 14.9-11.12 8.75 0 11.95 5.09 11.24 10.29Z" class="cls-1"/><path d="M304.7 61.98c-.71 12.07-8.87 19.4-20.23 19.4-15.85 0-24.49-13.25-24.49-28.75 0-18.21 11.47-28.98 26.02-28.98 5.8 0 10.17 2.13 13.25 4.97l2.25-5.32h2.01v20.11h-2.25c-2.13-11.24-6.62-16.68-14.79-16.68-10.29 0-15.02 10.41-15.02 25.55 0 16.32 4.5 25.43 15.38 25.43 7.33 0 13.96-5.68 14.78-15.73h3.08Z" class="cls-1"/><path d="M360.42 61.98c-.83 11.36-9.34 19.4-21.76 19.4-17.62 0-25.67-12.89-25.67-28.86 0-17.98 11.59-28.86 25.08-28.86 12.54 0 22.12 9.82 22.12 26.26v1.07h-35.6v1.42c0 16.68 4.85 25.31 16.56 25.31 8.52 0 15.38-6.39 16.21-15.73h3.07ZM324.7 47.91h24.72c-.12-14.43-4.14-21.17-11.59-21.17-8.28 0-12.42 7.69-13.13 21.17Z" class="cls-1"/><path d="M425.36 77.36v2.48c-5.68.12-10.29.24-15.61.83h-2.72V70.38c-2.96 7.1-8.04 11-15.61 11-12.3 0-22.47-10.06-22.47-28.86s11.59-28.86 23.54-28.86c6.51 0 11.12 3.2 13.96 9.11V12.3c0-7.57-.35-8.63-8.4-8.99V.83c5.68-.12 10.29-.24 15.61-.83h3.31v68.37c0 7.57.35 8.64 8.4 8.99Zm-18.58-25.08c0-17.62-5.44-25.55-13.6-25.55-8.63 0-12.66 9.23-12.66 25.55s4.38 25.43 13.13 25.43c7.93 0 13.13-7.81 13.13-25.43Z" class="cls-1"/><path d="M478.58 61.98c-.83 11.36-9.34 19.4-21.76 19.4-17.62 0-25.67-12.89-25.67-28.86 0-17.98 11.59-28.86 25.08-28.86 12.54 0 22.12 9.82 22.12 26.26v1.07h-35.6v1.42c0 16.68 4.85 25.31 16.56 25.31 8.52 0 15.38-6.39 16.21-15.73h3.07Zm-35.72-14.07h24.72c-.12-14.43-4.14-21.17-11.59-21.17-8.28 0-12.42 7.69-13.13 21.17Z" class="cls-1"/><path d="M527.44 65.06c0 11.48-9.7 16.33-19.4 16.33-6.74 0-12.06-2.01-15.73-5.32l-2.13 5.68h-2.01V61.64h2.25c1.42 10.05 7.69 16.68 17.27 16.68 8.04 0 11.95-4.02 11.95-9.34 0-5.68-4.26-7.81-10.17-10.17l-8.63-3.43c-7.93-3.08-12.54-8.4-12.54-16.09 0-10.41 9.23-15.61 18.22-15.61 5.91 0 10.53 2.01 13.6 4.73l2.01-5.09h1.77v17.74h-2.25c-1.66-7.81-6.03-14.31-15.02-14.31-6.51 0-10.53 3.55-10.53 8.52 0 5.56 3.67 7.93 10.05 10.53l8.52 3.43c4.97 2.01 12.78 5.92 12.78 15.85Z" class="cls-1"/><path d="M564.1 44.12v6.39h-26.85v-6.39h26.85Z" class="cls-1"/><path d="M634.48 58.91c0 13.01-11.12 21.29-26.61 21.29h-36.31v-2.72c8.04-.36 9.46-1.42 9.46-9.34V13.25c0-7.93-1.42-8.99-9.46-9.34V1.18h31.11c16.91 0 27.09 7.57 27.09 18.92 0 9.11-6.98 15.73-17.03 18.45v.12c12.78 1.65 21.76 8.75 21.76 20.23ZM592.73 4.62v33h7.45c12.18 0 17.63-5.44 17.63-16.56s-5.44-16.44-17.74-16.44h-7.33Zm29.1 54.29c0-11.83-5.68-17.86-16.92-17.86h-12.18v29.69c0 3.9.47 6.03 7.45 6.03h4.73c11.24 0 16.92-5.92 16.92-17.86Z" class="cls-1"/><path d="M691.38 61.98c-.83 11.36-9.34 19.4-21.76 19.4-17.62 0-25.67-12.89-25.67-28.86 0-17.98 11.59-28.86 25.08-28.86 12.54 0 22.12 9.82 22.12 26.26v1.07h-35.6v1.42c0 16.68 4.85 25.31 16.56 25.31 8.52 0 15.38-6.39 16.21-15.73h3.07Zm-35.73-14.07h24.72c-.12-14.43-4.14-21.17-11.59-21.17-8.28 0-12.42 7.69-13.13 21.17Z" class="cls-1"/><path d="M757.62 77.83v2.6c-4.85-.47-8.99-.71-13.01-.71h-.35c-3.67 0-7.92.24-12.07.71v-2.6c5.8-.59 7.1-1.42 7.1-8.99V38.21c0-8.04-3.07-10.88-8.75-10.88-7.21 0-13.37 6.27-13.37 14.9v26.61c0 7.57 1.42 8.4 7.22 8.99v2.6c-4.14-.47-8.4-.71-12.06-.71h-.47c-4.02 0-8.16.24-13.01.71v-2.6c6.74-.59 7.81-1.77 7.81-8.99V36.55c0-7.57-.35-8.64-8.4-8.99v-2.48c5.68-.12 10.29-.24 15.61-.83h2.72v9.23c2.6-5.91 8.52-9.82 16.32-9.82 10.88 0 16.92 6.74 16.92 18.1v27.09c0 7.22 1.06 8.4 7.81 8.99Z" class="cls-1"/><path d="m807.06 62.81-3.67 17.39h-41.64v-1.18l31.46-51.45h-9.94c-8.16 0-12.66 2.13-16.56 13.6h-2.6l3.55-16.44h38.68v1.3l-31.58 51.34h12.89c7.57 0 12.89-2.25 16.8-14.55h2.6Z" class="cls-1"/><path d="M860.64 44.24v23.78c0 8.04 1.54 8.99 11.36 9.7v2.72c-8.52-.47-12.66-.71-16.44-.71h-.95c-4.85 0-6.27.12-15.02.71v-2.72c7.92-.71 9.34-1.65 9.34-9.94V13.25c0-7.93-1.42-8.99-9.46-9.34V1.18h31.7c20.46 0 30.52 7.93 30.52 21.17 0 14.43-12.42 22.12-30.28 22.12-3.43 0-7.1 0-10.76-.24Zm0-39.63v36.08c3.08.35 6.15.35 9.23.35 13.72 0 19.28-6.39 19.28-18.21s-5.8-18.22-19.4-18.22h-9.11Z" class="cls-1"/><path d="M906.54 3.43V.95c5.68-.12 10.29-.24 15.61-.83h3.31v68.72c0 7.22 1.07 8.4 7.81 8.99v2.6c-4.85-.47-8.99-.71-13.01-.71h-.12c-4.02 0-8.16.24-13.01.71v-2.6c6.74-.59 7.81-1.77 7.81-8.99V12.42c0-7.57-.36-8.64-8.4-8.99Z" class="cls-1"/><path d="M989.34 77.36v2.36c-1.77.47-4.73 1.18-8.28 1.18-5.44 0-8.52-2.72-8.52-8.16v-2.25c-2.48 7.33-8.4 10.88-15.97 10.88-11.12 0-16.92-6.39-16.92-15.5 0-11.83 6.62-15.26 19.99-18.1 5.09-1.07 8.16-1.77 11.24-2.25v-8.4c0-7.45-3.43-10.41-9.11-10.41-5.32 0-8.64 2.84-8.64 10.17 0 4.02-2.25 5.44-5.2 5.44s-5.09-1.65-5.09-4.85c0-7.57 8.75-13.84 19.16-13.84 12.66 0 19.4 7.1 19.4 17.03V70.7c0 5.32 2.37 6.86 7.92 6.62Zm-18.46-14.79V48.61c-2.6.48-5.09 1.07-7.69 1.66-9.94 2.25-12.07 7.21-12.07 14.78 0 8.16 3.55 11.71 8.87 11.71 5.91 0 10.88-4.97 10.88-14.2Z" class="cls-1"/><path d="M1039.73 61.98c-.71 12.07-8.87 19.4-20.23 19.4-15.85 0-24.49-13.25-24.49-28.75 0-18.21 11.47-28.98 26.02-28.98 5.8 0 10.17 2.13 13.25 4.97l2.25-5.32h2.01v20.11h-2.25c-2.13-11.24-6.62-16.68-14.79-16.68-10.29 0-15.02 10.41-15.02 25.55 0 16.32 4.5 25.43 15.38 25.43 7.33 0 13.96-5.68 14.79-15.73h3.08Z" class="cls-1"/><path d="M1095.44 61.98c-.83 11.36-9.34 19.4-21.76 19.4-17.62 0-25.67-12.89-25.67-28.86 0-17.98 11.59-28.86 25.08-28.86 12.54 0 22.12 9.82 22.12 26.26v1.07h-35.6v1.42c0 16.68 4.85 25.31 16.56 25.31 8.52 0 15.38-6.39 16.21-15.73h3.07Zm-35.72-14.07h24.72c-.12-14.43-4.14-21.17-11.59-21.17-8.28 0-12.42 7.69-13.13 21.17Z" class="cls-1"/><path d="M1144.29 65.06c0 11.48-9.7 16.33-19.4 16.33-6.74 0-12.06-2.01-15.73-5.32l-2.13 5.68h-2.01V61.64h2.25c1.42 10.05 7.69 16.68 17.27 16.68 8.04 0 11.95-4.02 11.95-9.34 0-5.68-4.26-7.81-10.17-10.17l-8.63-3.43c-7.93-3.08-12.54-8.4-12.54-16.09 0-10.41 9.23-15.61 18.22-15.61 5.91 0 10.53 2.01 13.6 4.73l2.01-5.09h1.77v17.74h-2.25c-1.66-7.81-6.03-14.31-15.02-14.31-6.51 0-10.53 3.55-10.53 8.52 0 5.56 3.67 7.93 10.05 10.53l8.52 3.43c4.97 2.01 12.78 5.92 12.78 15.85Z" class="cls-1"/><path d="M0 117.73h1200v3.95H0z" class="cls-1"/></svg>
