<svg xmlns="http://www.w3.org/2000/svg" fill="none" viewBox="0 0 16 17" class="svg-instagram" role="img">
  <path fill="#D9D9D9" d="M4.68678.55595c-.85121.04016-1.43249.176001-1.94066.375682-.52592.204958-.97169.479998-1.41521.925118-.443528.44513-.716651.89121-.920173 1.41793-.196962.50928-.3304032 1.09104-.3680036 1.94273-.03760037.85168-.04592046 1.12544-.04176042 3.29793C.00513302 10.6878.0147331 10.9601.0560135 11.8136c.0406405.851.1760015 1.4322.3756835 1.9405.205282.5259.480005.9715.925293 1.4152.44528.4437.89105.7161 1.41905.92.50881.1966 1.09073.3307 1.94226.368.85153.0373 1.12561.0459 3.29747.0417 2.17183-.0041 2.44533-.0137 3.29863-.0542.8533-.0405 1.4313-.1768 1.9398-.3755.526-.2058.9719-.48 1.4152-.9255.4434-.4454.7164-.8918.9197-1.4188.1972-.5088.3311-1.0908.368-1.9417.0373-.8539.0461-1.1265.042-3.29868-.0042-2.17217-.014-2.44449-.0544-3.29761-.0405-.85313-.176-1.43249-.3756-1.94113-.2056-.52592-.48-.9712-.9251-1.41521-.4451-.444-.8918-.7168-1.4187-.919678C12.7161.714031 12.1345.57979 11.283.54299c-.8515-.0368-1.1256-.04624-3.29827-.04208-2.17266.00416-2.44466.01344-3.29795.05504Zm.09344 14.46215c-.78001-.0339-1.20353-.1635-1.48577-.272-.37377-.144-.64001-.3181-.92129-.5967-.28129-.2785-.45409-.5457-.60001-.9187-.1096-.2822-.2416-.7053-.27808-1.4853-.03968-.843-.048-1.0961-.05264-3.23198-.00464-2.13585.00352-2.38865.04048-3.23201.03328-.77937.16368-1.20337.272-1.48545.144-.37424.31744-.64.59665-.92112.2792-.28112.5456-.45424.91889-.60016.28192-.11008.70496-.24096 1.48465-.27808.84369-.04 1.09649-.048 3.23203-.05264 2.13557-.00465 2.38897.00335 3.23297.04048.7794.03392 1.2036.16304 1.4853.272.3739.144.64.31696.9212.59664.2811.27968.4544.54512.6003.9192.1102.28112.2411.704.2779 1.48417.0402.84368.0493 1.09664.0531 3.23201.0039 2.13534-.0037 2.38894-.0406 3.23204-.0341.78-.1634 1.2037-.272 1.4862-.144.3736-.3176.64-.597.921-.2794.2809-.5454.4541-.9189.6-.2816.1099-.7051.2411-1.4842.2782-.8436.0397-1.0964.048-3.23279.0527-2.13634.0046-2.38834-.004-3.23203-.0405M11.302 4.22428c.0004.18989.057.37541.1628.53311.1057.15771.2559.2805.4314.35286.1756.07236.3687.09103.5548.05365.1862-.03738.3571-.12913.4911-.26364.1341-.13451.2252-.30575.2619-.49206.0367-.1863.0173-.3793-.0557-.55459-.073-.1753-.1964-.325-.3545-.43019-.158-.10518-.3438-.16112-.5337-.16074-.2545.00051-.4984.1021-.6781.28242-.1797.18033-.2804.42463-.28.67918Zm-7.40963 4.2837c.00448 2.26882 1.84706 4.10382 4.11541 4.09952 2.26832-.0043 4.10472-1.8467 4.10032-4.11552-.0043-2.26881-1.8473-4.10434-4.11601-4.09986-2.26866.00448-4.10404 1.84737-4.09972 4.11586Zm1.44098-.00288c-.00105-.52743.15434-1.04332.44649-1.48244.29216-.43912.70797-.78175 1.19486-.98455.48688-.2028 1.02297-.25667 1.54047-.1548.5175.10187.99317.35491 1.36686.72712.37367.37221.62857.84687.73257 1.36396.1039.51709.0521 1.05338-.1487 1.54106-.2009.48765-.54189.90485-.97986 1.19875-.43796.2939-.95323.4513-1.48067.4523-.35021.0008-.69714-.0675-1.02097-.2008-.32383-.1334-.61821-.3292-.86634-.5764-.24813-.2471-.44514-.54074-.57978-.86404-.13465-.3233-.20428-.66995-.20493-1.02016Z"/>
</svg>
